<svg xmlns="http://www.w3.org/2000/svg" viewBox="0 0 35 30">
  <path fill="#10E80C" d="M9.567 2.727A5.2 5.2 0 0 0 7.188.464 5.3 5.3 0 0 0 3.887.133 5.15 5.15 0 0 0 0 4.941v24.415h3.336V4.941c.006-.374.14-.736.38-1.028.24-.292.573-.498.946-.584a1.72 1.72 0 0 1 1.924.86l11.241 21.906h-3.733l-5.86-11.416H4.502l7.537 14.677h11.197zM30.695.002v24.415a1.65 1.65 0 0 1-1.325 1.607 1.72 1.72 0 0 1-1.922-.855L16.207 3.263h3.733l5.86 11.416h3.732L21.998.002H10.801l13.664 26.63a5.2 5.2 0 0 0 2.38 2.26 5.3 5.3 0 0 0 3.3.33 5.15 5.15 0 0 0 3.889-4.805V.002z"/>
</svg>
