<svg xmlns="http://www.w3.org/2000/svg" viewBox="0 0 200 200">
  <rect width="200" height="200" rx="20" fill="#130F35"/>
  <path opacity=".4" fill="#23E6A8" d="m125.226 100 30.015-32.025c6.64-7.074 6.289-18.19-.785-24.83-7.18-6.713-18.416-6.33-25.085.785l-41.28 44.05c-6.343 6.76-6.343 17.283 0 24.041l41.28 44.049c6.667 7.111 17.867 7.5 25.009.858 7.138-6.623 7.236-17.822.861-24.902z"/>
  <path fill="#23E6A8" d="M73.108 100 43.091 67.975c-6.638-7.074-6.286-18.19.787-24.83 7.22-6.713 18.416-6.33 25.085.785l41.278 44.05c6.344 6.76 6.344 17.283 0 24.041L68.963 156.07c-6.667 7.111-17.867 7.5-25.008.858-7.139-6.623-7.237-17.822-.864-24.902z"/>
</svg>
